<svg width="24" height="24" viewBox="0 0 24 24" fill="none" xmlns="http://www.w3.org/2000/svg">
<path d="M12.0034 5.05824e-07C9.62976 -0.000688557 7.3092 0.702648 5.33533 2.02092C3.36141 3.33925 1.82283 5.21335 0.914154 7.40619C0.00542789 9.59909 -0.232496 12.0121 0.230407 14.3402C0.693309 16.6683 1.83627 18.8069 3.51473 20.4853C5.19318 22.1637 7.33169 23.3066 9.65974 23.7696C11.9879 24.2324 14.4009 23.9945 16.5937 23.0859C18.7866 22.1771 20.6608 20.6386 21.9791 18.6646C23.2974 16.6908 24.0008 14.3702 24 11.9965C23.9964 8.81597 22.7313 5.76667 20.4823 3.51766C18.2333 1.26866 15.184 0.00359347 12.0034 5.05824e-07ZM17.4518 15.8922C17.5531 15.9931 17.6334 16.113 17.6884 16.2451C17.7432 16.3771 17.7714 16.5187 17.7714 16.6617C17.7714 16.8048 17.7432 16.9464 17.6884 17.0784C17.6334 17.2105 17.5531 17.3304 17.4518 17.4313C17.2449 17.634 16.9669 17.7476 16.6771 17.7476C16.3874 17.7476 16.1093 17.6341 15.9024 17.4313L12.0034 13.5357L8.10787 17.4313C7.90317 17.6342 7.62656 17.7481 7.33828 17.7481C7.05001 17.7481 6.7734 17.6342 6.5687 17.4313C6.46741 17.3304 6.38698 17.2105 6.33215 17.0784C6.27732 16.9464 6.24907 16.8048 6.24907 16.6617C6.24907 16.5187 6.27732 16.3771 6.33215 16.2451C6.38698 16.113 6.46741 15.9931 6.5687 15.8922L10.4643 11.9863L6.5687 8.09417C6.38088 7.88691 6.27998 7.61532 6.28687 7.33571C6.29376 7.0561 6.4079 6.78983 6.60571 6.59202C6.80352 6.39426 7.0698 6.28007 7.34941 6.27318C7.62902 6.26629 7.90061 6.36719 8.10787 6.555L12.0034 10.4472L15.8956 6.555C16.1016 6.3506 16.3801 6.23587 16.6703 6.23587C16.9605 6.23587 17.239 6.3506 17.445 6.555C17.5463 6.65595 17.6267 6.77585 17.6815 6.9079C17.7363 7.03996 17.7645 7.18156 17.7645 7.32459C17.7645 7.46757 17.7363 7.60917 17.6815 7.74122C17.6267 7.87328 17.5463 7.99322 17.445 8.09412L13.5528 11.9863L17.4518 15.8922Z" fill="white"/>
</svg>
