<svg width="32" height="32" viewBox="0 0 32 32" fill="none" xmlns="http://www.w3.org/2000/svg">
<g clip-path="url(#clip0_2_379)">
<rect width="32" height="32" rx="16" fill="#5C6BC0"/>
<circle cx="16.5" cy="17.5" r="11.5" fill="white"/>
<path d="M4.7735 29.2613H23.7855L25 33C25.1347 33.1173 30.6668 33 30.6668 33V4.3C30.5762 2.516 29.0402 1 27.1362 1L4.78016 1.004C2.8775 1.004 1.3335 2.52267 1.3335 4.30667V25.96C1.3335 27.8413 2.87483 29.2613 4.7735 29.2613ZM18.8375 8.57733L18.7935 8.59333L18.8095 8.57733H18.8375ZM8.66283 10.2693C11.1068 8.49067 13.3722 8.576 13.3722 8.576L13.5548 8.756C10.5642 9.46933 9.20816 10.8053 9.20816 10.8053C9.34683 10.776 15.3855 7.292 22.7028 10.8933C22.7028 10.8933 21.3442 9.644 18.5375 8.844L18.7855 8.6C19.1735 8.60133 21.2268 8.67333 23.4242 10.28C23.4242 10.28 25.8828 14.48 25.8828 19.64C25.8015 19.5413 24.3575 21.8613 20.6415 21.9413C20.6415 21.9413 20.0122 21.2293 19.5642 20.608C21.7375 19.984 22.5508 18.736 22.5508 18.736C18.3202 21.4 14.6122 20.984 10.1762 19.184C10.1348 19.184 10.1162 19.1653 10.0948 19.144V19.136C10.0735 19.116 10.0548 19.096 10.0135 19.096H9.9335C9.6615 18.9173 9.48016 18.8293 9.48016 18.8293C9.48016 18.8293 10.2922 20.0773 12.3788 20.7013C11.8308 21.3267 11.2882 22.0373 11.2882 22.0373C7.5735 21.9493 6.21883 19.6293 6.21883 19.6293C6.21883 14.4613 8.66283 10.2693 8.66283 10.2693Z" fill="#5C6BC0"/>
<path d="M19.0775 18.028C20.0255 18.028 20.7975 17.228 20.7975 16.2413C20.7975 15.2613 20.0295 14.4613 19.0775 14.4613V14.4653C18.1335 14.4653 17.3602 15.2627 17.3575 16.2493C17.3575 17.228 18.1295 18.028 19.0775 18.028Z" fill="#5C6BC0"/>
<path d="M12.9202 18.028C13.8682 18.028 14.6402 17.228 14.6402 16.2413C14.6402 15.2613 13.8735 14.4613 12.9255 14.4613L12.9202 14.4653C11.9722 14.4653 11.2002 15.2627 11.2002 16.2493C11.2002 17.228 11.9722 18.028 12.9202 18.028Z" fill="#5C6BC0"/>
</g>
<defs>
<clipPath id="clip0_2_379">
<rect width="32" height="32" rx="16" fill="white"/>
</clipPath>
</defs>
</svg>
