<svg width="32" height="32" viewBox="0 0 32 32" fill="none" xmlns="http://www.w3.org/2000/svg">
<g clip-path="url(#clip0_2_361)">
<path d="M30.7917 13.2181L17.7392 13.2174C17.1629 13.2174 16.6957 13.6846 16.6957 14.2609V18.4306C16.6957 19.0069 17.1629 19.4741 17.7392 19.4741H25.0896C24.2847 21.5629 22.7824 23.3123 20.8658 24.4237L24 29.8493C29.0276 26.9416 32 21.8398 32 16.1287C32 15.3155 31.9401 14.7342 31.8202 14.0796C31.7291 13.5823 31.2973 13.2181 30.7917 13.2181Z" fill="#167EE6"/>
<path d="M16 25.7391C12.4029 25.7391 9.26263 23.7738 7.57607 20.8654L2.1507 23.9926C4.91163 28.7777 10.0838 32 16 32C18.9023 32 21.6409 31.2186 24 29.8568V29.8493L20.8658 24.4237C19.4322 25.2552 17.7732 25.7391 16 25.7391Z" fill="#12B347"/>
<path d="M24 29.8567V29.8493L20.8658 24.4237C19.4322 25.2551 17.7733 25.7391 16 25.7391V32C18.9023 32 21.641 31.2186 24 29.8567Z" fill="#0F993E"/>
<path d="M6.26088 16C6.26088 14.2269 6.74475 12.5681 7.57606 11.1346L2.15069 8.00745C0.781375 10.3591 0 13.0903 0 16C0 18.9098 0.781375 21.6409 2.15069 23.9926L7.57606 20.8654C6.74475 19.4319 6.26088 17.7731 6.26088 16Z" fill="#FFD500"/>
<path d="M16 6.26088C18.3457 6.26088 20.5003 7.09437 22.1833 8.48081C22.5984 8.82281 23.2019 8.79813 23.5822 8.41781L26.5366 5.46344C26.9681 5.03194 26.9373 4.32562 26.4764 3.92575C23.6567 1.47956 19.9879 0 16 0C10.0838 0 4.91163 3.22231 2.1507 8.00744L7.57607 11.1346C9.26263 8.22625 12.4029 6.26088 16 6.26088Z" fill="#FF4B26"/>
<path d="M22.1833 8.48081C22.5984 8.82281 23.2019 8.79813 23.5822 8.41781L26.5366 5.46344C26.968 5.03194 26.9373 4.32562 26.4764 3.92575C23.6567 1.4795 19.9879 0 16 0V6.26088C18.3456 6.26088 20.5003 7.09437 22.1833 8.48081Z" fill="#D93F21"/>
</g>
<defs>
<clipPath id="clip0_2_361">
<rect width="32" height="32" fill="white"/>
</clipPath>
</defs>
</svg>
