<svg width="22" height="22" viewBox="0 0 22 22" fill="none" xmlns="http://www.w3.org/2000/svg">
<g clip-path="url(#clip0_200_259)">
<path d="M19.1358 13.6282C18.6397 13.1592 18.0412 12.9085 17.407 12.9085C16.7778 12.9085 16.1742 13.1546 15.6576 13.6236L14.0413 15.0862C13.9083 15.0212 13.7753 14.9608 13.6474 14.9005C13.4633 14.8169 13.2894 14.7379 13.141 14.6544C11.627 13.7814 10.2511 12.6438 8.9314 11.1719C8.29202 10.4383 7.86236 9.82075 7.55034 9.19391C7.96977 8.84566 8.35851 8.48349 8.73703 8.13525C8.88025 8.00523 9.02347 7.87058 9.16669 7.74057C10.2408 6.76549 10.2408 5.50252 9.16669 4.52744L7.77029 3.25983C7.61172 3.11589 7.44804 2.96731 7.29459 2.81872C6.98769 2.53084 6.66545 2.23367 6.33297 1.95508C5.83681 1.50933 5.24347 1.27252 4.61944 1.27252C3.99541 1.27252 3.39184 1.50933 2.88034 1.95508C2.87522 1.95972 2.87522 1.95972 2.87011 1.96437L1.131 3.557C0.476283 4.15134 0.102888 4.87568 0.0210475 5.71611C-0.101713 7.07194 0.338178 8.33491 0.675769 9.1614C1.5044 11.1905 2.74223 13.071 4.58875 15.0862C6.82913 17.5146 9.52474 19.4323 12.604 20.7835C13.7804 21.2896 15.3507 21.8886 17.1052 21.9907C17.2126 21.9953 17.3251 22 17.4274 22C18.609 22 19.6013 21.6146 20.3788 20.8485C20.3839 20.8392 20.3941 20.8345 20.3992 20.8253C20.6652 20.5327 20.9721 20.2681 21.2944 19.9848C21.5143 19.7944 21.7394 19.5948 21.9593 19.3858C22.4657 18.9076 22.7317 18.3504 22.7317 17.7793C22.7317 17.2035 22.4606 16.651 21.944 16.1866L19.1358 13.6282ZM20.967 18.5176C20.9619 18.5176 20.9619 18.5222 20.967 18.5176C20.7675 18.7126 20.5629 18.889 20.343 19.084C20.0105 19.3719 19.6729 19.6737 19.3558 20.0127C18.8392 20.5142 18.2305 20.751 17.4325 20.751C17.3558 20.751 17.274 20.751 17.1973 20.7463C15.6781 20.6581 14.2664 20.1195 13.2075 19.6598C10.3124 18.3875 7.77029 16.5813 5.65779 14.2922C3.91357 12.3838 2.74735 10.6194 1.97498 8.72494C1.49929 7.56877 1.32538 6.66798 1.4021 5.81826C1.45325 5.275 1.68343 4.82461 2.10797 4.43922L3.85219 2.85587C4.10283 2.64228 4.36881 2.5262 4.62967 2.5262C4.95192 2.5262 5.21278 2.70264 5.37646 2.85123C5.38158 2.85587 5.38669 2.86051 5.39181 2.86516C5.70382 3.12982 6.00049 3.40377 6.31251 3.6963C6.47108 3.84488 6.63476 3.99347 6.79844 4.14669L8.19483 5.4143C8.73703 5.90649 8.73703 6.36153 8.19483 6.85371C8.0465 6.98836 7.90328 7.12302 7.75494 7.25303C7.32528 7.65235 6.91608 8.02381 6.47108 8.38598C6.46085 8.39527 6.45062 8.39991 6.4455 8.4092C6.00561 8.80852 6.08745 9.19855 6.17952 9.46322C6.18463 9.47715 6.18975 9.49107 6.19487 9.505C6.55803 10.3036 7.06953 11.0559 7.84701 11.952L7.85213 11.9566C9.26387 13.5353 10.7523 14.7658 12.3943 15.7084C12.604 15.8291 12.8188 15.9266 13.0234 16.0195C13.2075 16.1031 13.3815 16.182 13.5298 16.2656C13.5502 16.2749 13.5707 16.2888 13.5912 16.2981C13.7651 16.377 13.9288 16.4142 14.0976 16.4142C14.5221 16.4142 14.7881 16.1727 14.875 16.0938L16.6244 14.5058C16.7983 14.3479 17.0745 14.1575 17.3967 14.1575C17.7139 14.1575 17.9747 14.3386 18.1333 14.4965C18.1384 14.5011 18.1384 14.5011 18.1435 14.5058L20.9619 17.0642C21.4887 17.5378 21.4887 18.0254 20.967 18.5176Z" fill="#99C455" style="fill:#99C455;fill:color(display-p3 0.6000 0.7686 0.3333);fill-opacity:1;"/>
<path d="M13.0799 5.23321C14.42 5.43752 15.6374 6.01328 16.6092 6.8955C17.5811 7.77771 18.2102 8.88281 18.4404 10.0993C18.4967 10.4058 18.7882 10.6194 19.1207 10.6194C19.1616 10.6194 19.1974 10.6147 19.2383 10.6101C19.6168 10.5544 19.8675 10.2293 19.8061 9.88575C19.5299 8.41384 18.7626 7.07194 17.5913 6.00864C16.42 4.94533 14.9417 4.24884 13.3203 3.99811C12.9418 3.94239 12.5888 4.16991 12.5223 4.50887C12.4558 4.84782 12.7014 5.17749 13.0799 5.23321Z" fill="#99C455" style="fill:#99C455;fill:color(display-p3 0.6000 0.7686 0.3333);fill-opacity:1;"/>
<path d="M24.1895 9.70466C23.7342 7.28089 22.476 5.07534 20.5425 3.32019C18.609 1.56505 16.1794 0.422806 13.5093 0.0095565C13.1359 -0.0508058 12.783 0.181357 12.7165 0.520314C12.6551 0.863915 12.9058 1.1843 13.2843 1.24466C15.6679 1.61148 17.8418 2.63764 19.5706 4.20241C21.2995 5.77183 22.4248 7.74521 22.8289 9.90897C22.8852 10.2154 23.1767 10.429 23.5092 10.429C23.5501 10.429 23.5859 10.4244 23.6268 10.4197C24.0002 10.3686 24.256 10.0436 24.1895 9.70466Z" fill="#99C455" style="fill:#99C455;fill:color(display-p3 0.6000 0.7686 0.3333);fill-opacity:1;"/>
</g>
<defs>
<clipPath id="clip0_200_259">
<rect width="22" height="22" fill="white" style="fill:white;fill-opacity:1;"/>
</clipPath>
</defs>
</svg>
