<svg width="27" height="27" viewBox="0 0 27 27" fill="none" xmlns="http://www.w3.org/2000/svg">
<g clip-path="url(#clip0_160_57)">
<path d="M21.3385 16.7255C20.7858 16.15 20.119 15.8423 19.4124 15.8423C18.7115 15.8423 18.0391 16.1443 17.4635 16.7198L15.6628 18.5149C15.5146 18.4351 15.3665 18.361 15.224 18.2869C15.0189 18.1844 14.8251 18.0875 14.6598 17.9849C12.9731 16.9136 11.4402 15.5174 9.96995 13.711C9.25763 12.8106 8.77895 12.0527 8.43134 11.2834C8.89862 10.856 9.33171 10.4116 9.7534 9.98417C9.91296 9.82461 10.0725 9.65935 10.2321 9.4998C11.4288 8.3031 11.4288 6.7531 10.2321 5.55641L8.67638 4.00071C8.49973 3.82406 8.31737 3.6417 8.14642 3.45935C7.80451 3.10604 7.4455 2.74133 7.07509 2.39942C6.52234 1.85236 5.86131 1.56174 5.16608 1.56174C4.47086 1.56174 3.79844 1.85236 3.22858 2.39942C3.22288 2.40512 3.22288 2.40512 3.21719 2.41082L1.27968 4.36542C0.550271 5.09483 0.134278 5.9838 0.0431019 7.01523C-0.0936629 8.67921 0.396411 10.2292 0.772514 11.2435C1.69568 13.7338 3.07472 16.0417 5.13189 18.5149C7.62785 21.4952 10.631 23.8487 14.0615 25.507C15.3722 26.1281 17.1216 26.8632 19.0762 26.9886C19.1959 26.9943 19.3212 27 19.4352 27C20.7516 27 21.8571 26.527 22.7233 25.5868C22.729 25.5754 22.7404 25.5697 22.7461 25.5583C23.0424 25.1993 23.3843 24.8744 23.7433 24.5268C23.9883 24.2932 24.2391 24.0482 24.4841 23.7917C25.0483 23.2048 25.3446 22.5209 25.3446 21.82C25.3446 21.1134 25.0426 20.4353 24.467 19.8654L21.3385 16.7255ZM23.3786 22.7261C23.3729 22.7261 23.3729 22.7318 23.3786 22.7261C23.1564 22.9654 22.9284 23.182 22.6834 23.4213C22.313 23.7746 21.9369 24.145 21.5836 24.561C21.008 25.1765 20.3299 25.4671 19.4409 25.4671C19.3554 25.4671 19.2643 25.4671 19.1788 25.4614C17.4863 25.3531 15.9135 24.6921 14.7339 24.1279C11.5086 22.5665 8.67638 20.3498 6.32289 17.5404C4.37969 15.1983 3.08042 13.0329 2.21994 10.7079C1.68998 9.28895 1.49623 8.18343 1.58171 7.1406C1.63869 6.47387 1.89513 5.92112 2.3681 5.44814L4.3113 3.50494C4.59053 3.2428 4.88686 3.10034 5.17748 3.10034C5.53649 3.10034 5.82711 3.31689 6.00947 3.49924C6.01517 3.50494 6.02086 3.51064 6.02656 3.51633C6.37417 3.84115 6.70469 4.17736 7.0523 4.53637C7.22895 4.71873 7.41131 4.90108 7.59366 5.08913L9.14936 6.64483C9.7534 7.24888 9.7534 7.80733 9.14936 8.41138C8.9841 8.57663 8.82454 8.74189 8.65929 8.90145C8.18061 9.39152 7.72473 9.84741 7.22895 10.2919C7.21756 10.3033 7.20616 10.309 7.20046 10.3204C6.71039 10.8105 6.80156 11.2891 6.90414 11.614C6.90984 11.631 6.91553 11.6481 6.92123 11.6652C7.32583 12.6454 7.89568 13.5686 8.76186 14.6684L8.76756 14.6741C10.3404 16.6116 11.9986 18.1217 13.8279 19.2785C14.0615 19.4266 14.3008 19.5463 14.5288 19.6603C14.7339 19.7629 14.9277 19.8597 15.0929 19.9623C15.1157 19.9737 15.1385 19.9908 15.1613 20.0022C15.3551 20.0991 15.5374 20.1447 15.7255 20.1447C16.1984 20.1447 16.4948 19.8483 16.5916 19.7515L18.5405 17.8026C18.7343 17.6088 19.042 17.3752 19.401 17.3752C19.7543 17.3752 20.045 17.5974 20.2216 17.7912C20.2273 17.7969 20.2273 17.7969 20.233 17.8026L23.3729 20.9425C23.9599 21.5237 23.9599 22.1221 23.3786 22.7261Z" fill="#99C455" style="fill:#99C455;fill:color(display-p3 0.6000 0.7686 0.3333);fill-opacity:1;"/>
<path d="M14.5915 6.42259C16.0845 6.67333 17.4408 7.37995 18.5235 8.46267C19.6062 9.54539 20.3071 10.9016 20.5635 12.3947C20.6262 12.7708 20.9511 13.0329 21.3215 13.0329C21.367 13.0329 21.4069 13.0272 21.4525 13.0215C21.8742 12.9531 22.1534 12.5542 22.0851 12.1325C21.7773 10.3261 20.9226 8.67921 19.6176 7.37425C18.3126 6.06929 16.6658 5.2145 14.8593 4.90678C14.4376 4.8384 14.0444 5.11763 13.9703 5.53362C13.8963 5.94962 14.1698 6.35421 14.5915 6.42259Z" fill="#99C455" style="fill:#99C455;fill:color(display-p3 0.6000 0.7686 0.3333);fill-opacity:1;"/>
<path d="M26.9686 11.9103C26.4615 8.93563 25.0596 6.22883 22.9056 4.07478C20.7515 1.92074 18.0447 0.518898 15.0701 0.0117284C14.6541 -0.0623525 14.2609 0.222574 14.1868 0.638567C14.1184 1.06026 14.3977 1.45346 14.8193 1.52754C17.4749 1.97772 19.8967 3.2371 21.8228 5.15751C23.7489 7.08361 25.0026 9.50549 25.4528 12.161C25.5155 12.5371 25.8403 12.7992 26.2107 12.7992C26.2563 12.7992 26.2962 12.7935 26.3418 12.7878C26.7578 12.7252 27.0427 12.3263 26.9686 11.9103Z" fill="#99C455" style="fill:#99C455;fill:color(display-p3 0.6000 0.7686 0.3333);fill-opacity:1;"/>
</g>
<defs>
<clipPath id="clip0_160_57">
<rect width="27" height="27" fill="white" style="fill:white;fill-opacity:1;"/>
</clipPath>
</defs>
</svg>
