<svg width="30" height="31" viewBox="0 0 30 31" fill="none" xmlns="http://www.w3.org/2000/svg">
<rect y="0.139954" width="30" height="30.2999" rx="15" fill="#99C455" style="fill:#99C455;fill:color(display-p3 0.6000 0.7686 0.3333);fill-opacity:1;"/>
<path d="M19.6904 7.37096C16.8318 6.81959 13.8632 6.81959 11.0046 7.37096C9.74018 7.64664 8.14594 9.19048 7.87107 10.4035C7.37631 12.7744 7.37631 15.2004 7.87107 17.5713C8.20092 18.7843 9.79516 20.3282 11.0046 20.6039C11.0596 20.6039 11.1145 20.659 11.1145 20.7141V24.1878C11.1145 24.3532 11.3344 24.4635 11.4444 24.2981L13.0936 22.5888C13.0936 22.5888 14.413 21.2104 14.6329 20.9898C14.6329 20.9898 14.6878 20.9347 14.7428 20.9347C16.392 20.9898 18.0962 20.8244 19.7454 20.5487C21.0098 20.2731 22.6041 18.7292 22.8789 17.5162C23.3737 15.1453 23.3737 12.7193 22.8789 10.3484C22.5491 9.19048 20.9548 7.64664 19.6904 7.37096ZM19.7454 17.7367C19.4705 18.2881 19.1407 18.7292 18.591 19.0049C18.426 19.06 18.2611 19.1152 18.0962 19.1703C17.8763 19.1152 17.7114 19.06 17.5465 19.0049C15.7873 18.2881 14.1381 17.2956 12.8187 15.8621C12.1041 15.035 11.4993 14.0977 11.0046 13.1052C10.7847 12.609 10.5648 12.1679 10.3999 11.6717C10.2349 11.2306 10.5098 10.7895 10.7847 10.4586C11.0596 10.1278 11.3894 9.90727 11.7742 9.74185C12.0491 9.57644 12.324 9.68672 12.5438 9.90727C12.9836 10.4586 13.4234 11.01 13.7533 11.6165C13.9732 12.0025 13.9182 12.4436 13.5334 12.7193C13.4234 12.7744 13.3685 12.8295 13.2585 12.9398C13.2035 12.9949 13.0936 13.0501 13.0386 13.1604C12.9287 13.3258 12.9287 13.4912 12.9836 13.6566C13.4234 14.9247 14.248 15.9172 15.5124 16.4686C15.7323 16.5789 15.8973 16.634 16.1721 16.634C16.5569 16.5789 16.7219 16.1378 16.9967 15.9172C17.2716 15.6967 17.6014 15.6967 17.9313 15.8621C18.2062 16.0275 18.481 16.248 18.8109 16.4686C19.0857 16.6891 19.3606 16.8545 19.6355 17.0751C19.8004 17.1854 19.8554 17.4611 19.7454 17.7367ZM17.4365 13.6015C17.3266 13.6015 17.3815 13.6015 17.4365 13.6015C17.2166 13.6015 17.1616 13.4912 17.1067 13.3258C17.1067 13.2155 17.1067 13.0501 17.0517 12.9398C16.9967 12.7193 16.8868 12.4987 16.6669 12.3333C16.5569 12.2782 16.447 12.223 16.337 12.1679C16.1721 12.1128 16.0622 12.1128 15.8973 12.1128C15.7323 12.0576 15.6774 11.9473 15.6774 11.7819C15.6774 11.6717 15.8423 11.5614 15.9522 11.5614C16.8318 11.6165 17.4915 12.1128 17.6014 13.1604C17.6014 13.2155 17.6014 13.3258 17.6014 13.3809C17.6014 13.4912 17.5465 13.6015 17.4365 13.6015ZM16.8868 11.1754C16.6119 11.0651 16.337 10.9549 16.0072 10.8997C15.8973 10.8997 15.7323 10.8446 15.6224 10.8446C15.4575 10.8446 15.3475 10.7343 15.4025 10.5689C15.4025 10.4035 15.5124 10.2932 15.6774 10.3484C16.2271 10.4035 16.7219 10.5138 17.2166 10.7343C18.2062 11.2306 18.7559 12.0576 18.9208 13.1604C18.9208 13.2155 18.9208 13.2706 18.9208 13.3258C18.9208 13.436 18.9208 13.5463 18.9208 13.7117C18.9208 13.7669 18.9208 13.822 18.9208 13.8771C18.8658 14.0977 18.481 14.1528 18.426 13.8771C18.426 13.822 18.3711 13.7117 18.3711 13.6566C18.3711 13.1604 18.2611 12.6641 18.0412 12.223C17.7114 11.7268 17.3266 11.396 16.8868 11.1754ZM19.8554 14.4836C19.6904 14.4836 19.5805 14.3182 19.5805 14.1528C19.5805 13.822 19.5255 13.4912 19.4705 13.1604C19.2507 11.396 17.8213 9.9624 16.1171 9.68672C15.8423 9.63158 15.5674 9.63158 15.3475 9.57644C15.1826 9.57644 14.9627 9.57644 14.9077 9.35589C14.8527 9.19048 15.0177 9.02507 15.1826 9.02507C15.2376 9.02507 15.2925 9.02507 15.2925 9.02507C15.4025 9.02507 17.5465 9.08021 15.2925 9.02507C17.6014 9.08021 19.5255 10.624 19.9103 12.9398C19.9653 13.3258 20.0203 13.7117 20.0203 14.1528C20.1302 14.3182 20.0203 14.4836 19.8554 14.4836Z" fill="white" style="fill:white;fill-opacity:1;"/>
</svg>
