<svg width="30" height="31" viewBox="0 0 30 31" fill="none" xmlns="http://www.w3.org/2000/svg">
<g clip-path="url(#clip0_200_584)">
<rect y="0.139954" width="30" height="30.2999" rx="15" fill="#99C455" style="fill:#99C455;fill:color(display-p3 0.6000 0.7686 0.3333);fill-opacity:1;"/>
<path d="M22.4822 10.937C21.4372 10.937 20.435 10.5177 19.6961 9.7714C18.9572 9.02509 18.5421 8.01288 18.5421 6.95746H15.7271V18.0907C15.7266 18.5983 15.5679 19.0928 15.2736 19.5043C14.9792 19.9157 14.5641 20.2231 14.0871 20.3829C13.6101 20.5427 13.0954 20.5469 12.6159 20.3948C12.1365 20.2426 11.7166 19.942 11.4157 19.5353C11.1149 19.1287 10.9484 18.6368 10.9399 18.1293C10.9314 17.6218 11.0812 17.1244 11.3681 16.7077C11.6551 16.291 12.0646 15.9761 12.5387 15.8076C13.0128 15.6391 13.5273 15.6255 14.0094 15.7689V13.0051C12.9849 12.8656 11.9426 13.0451 11.0216 13.5196C10.1007 13.9941 9.34509 14.7411 8.85558 15.6608C8.36608 16.5805 8.16603 17.6292 8.28215 18.6667C8.39827 19.7043 8.82503 20.6814 9.50543 21.4675C10.1858 22.2537 11.0875 22.8114 12.0901 23.0664C13.0926 23.3213 14.1483 23.2613 15.1162 22.8943C16.084 22.5273 16.918 21.8708 17.5068 21.0125C18.0955 20.1542 18.411 19.1349 18.411 18.0907L18.4931 12.4632C19.6498 13.3208 21.0476 13.7822 22.4824 13.78L22.4822 10.937Z" fill="white" style="fill:white;fill-opacity:1;"/>
</g>
<defs>
<clipPath id="clip0_200_584">
<rect width="30" height="30.2999" fill="white" style="fill:white;fill-opacity:1;" transform="translate(0 0.139954)"/>
</clipPath>
</defs>
</svg>
