<svg width="30" height="31" viewBox="0 0 30 31" fill="none" xmlns="http://www.w3.org/2000/svg">
<rect y="0.139954" width="30" height="30.2999" rx="15" fill="#99C455" style="fill:#99C455;fill:color(display-p3 0.6000 0.7686 0.3333);fill-opacity:1;"/>
<path d="M15 9.08391C16.988 9.08391 17.259 9.08391 18.0723 9.08391C18.7952 9.08391 19.1566 9.26644 19.4277 9.3577C19.7892 9.54023 20.0602 9.6315 20.3313 9.90529C20.6024 10.1791 20.7831 10.4529 20.8735 10.8179C20.9639 11.0917 21.0542 11.4568 21.1446 12.1869C21.1446 13.0083 21.1446 13.1908 21.1446 15.2899C21.1446 17.389 21.1446 17.5715 21.1446 18.3929C21.1446 19.123 20.9639 19.4881 20.8735 19.7619C20.6928 20.127 20.6024 20.4008 20.3313 20.6745C20.0602 20.9483 19.7892 21.1309 19.4277 21.2221C19.1566 21.3134 18.7952 21.4047 18.0723 21.4959C17.259 21.4959 17.0783 21.4959 15 21.4959C12.9217 21.4959 12.741 21.4959 11.9277 21.4959C11.2048 21.4959 10.8434 21.3134 10.5723 21.2221C10.2108 21.0396 9.93976 20.9483 9.66868 20.6745C9.39759 20.4008 9.21687 20.127 9.12651 19.7619C9.03614 19.4881 8.94578 19.123 8.85542 18.3929C8.85542 17.5715 8.85542 17.389 8.85542 15.2899C8.85542 13.1908 8.85542 13.0083 8.85542 12.1869C8.85542 11.4568 9.03614 11.0917 9.12651 10.8179C9.30723 10.4529 9.39759 10.1791 9.66868 9.90529C9.93976 9.6315 10.2108 9.44897 10.5723 9.3577C10.8434 9.26644 11.2048 9.17517 11.9277 9.08391C12.741 9.08391 13.012 9.08391 15 9.08391ZM15 7.71494C12.9217 7.71494 12.741 7.71494 11.9277 7.71494C11.1145 7.71494 10.5723 7.89747 10.1205 8.08C9.66868 8.26253 9.21687 8.53632 8.76506 8.99264C8.31325 9.44897 8.13253 9.81403 7.86145 10.3616C7.68072 10.8179 7.59036 11.3655 7.5 12.1869C7.5 13.0083 7.5 13.2821 7.5 15.2899C7.5 17.389 7.5 17.5715 7.5 18.3929C7.5 19.2143 7.68072 19.7619 7.86145 20.2182C8.04217 20.6745 8.31325 21.1309 8.76506 21.5872C9.21687 22.0435 9.57831 22.226 10.1205 22.4998C10.5723 22.6824 11.1145 22.7736 11.9277 22.8649C12.741 22.8649 13.012 22.8649 15 22.8649C16.988 22.8649 17.259 22.8649 18.0723 22.8649C18.8855 22.8649 19.4277 22.6824 19.8795 22.4998C20.3313 22.3173 20.7831 22.0435 21.2349 21.5872C21.6867 21.1309 21.8675 20.7658 22.1386 20.2182C22.3193 19.7619 22.4096 19.2143 22.5 18.3929C22.5 17.5715 22.5 17.2977 22.5 15.2899C22.5 13.2821 22.5 13.0083 22.5 12.1869C22.5 11.3655 22.3193 10.8179 22.1386 10.3616C21.9578 9.90529 21.6867 9.44897 21.2349 8.99264C20.7831 8.53632 20.4217 8.35379 19.8795 8.08C19.4277 7.89747 18.8855 7.8062 18.0723 7.71494C17.259 7.71494 17.0783 7.71494 15 7.71494Z" fill="white" style="fill:white;fill-opacity:1;"/>
<path d="M15 11.3655C12.8313 11.3655 11.1145 13.0996 11.1145 15.2899C11.1145 17.4803 12.8313 19.2143 15 19.2143C17.1687 19.2143 18.8855 17.4803 18.8855 15.2899C18.8855 13.0996 17.1687 11.3655 15 11.3655ZM15 17.8453C13.6446 17.8453 12.4699 16.7502 12.4699 15.2899C12.4699 13.9209 13.5542 12.7345 15 12.7345C16.3554 12.7345 17.5301 13.8297 17.5301 15.2899C17.5301 16.6589 16.3554 17.8453 15 17.8453Z" fill="white" style="fill:white;fill-opacity:1;"/>
<path d="M18.9759 12.1869C19.475 12.1869 19.8795 11.7783 19.8795 11.2743C19.8795 10.7702 19.475 10.3616 18.9759 10.3616C18.4769 10.3616 18.0723 10.7702 18.0723 11.2743C18.0723 11.7783 18.4769 12.1869 18.9759 12.1869Z" fill="white" style="fill:white;fill-opacity:1;"/>
</svg>
